<svg xmlns="http://www.w3.org/2000/svg" xmlns:xlink="http://www.w3.org/1999/xlink" version="1.0" x="0px" y="0px" width="100px" height="100px" viewBox="0 0 100 100" enable-background="new 0 0 100 100" xml:space="preserve">
<g id="Captions">
</g>
<g id="Your_Icon">
	<path fill="#000000" d="M66.665,0h-1.599h-4.924h-1.807H21.909c-6.335,0-11.495,5.155-11.495,11.491v77.018   c0,6.335,5.159,11.491,11.495,11.491H78.09c6.344,0,11.495-5.155,11.495-11.491V29.167v-2.706v-4.142v-1.485L66.665,0z    M66.665,8.333l14.585,12.5H69.824c-1.744,0-3.16-1.416-3.16-3.158V8.333z M81.25,88.509c0,1.741-1.416,3.158-3.16,3.158H21.909   c-1.744,0-3.16-1.416-3.16-3.158V11.491c0-1.741,1.416-3.158,3.16-3.158h36.426v1.278v8.065c0,6.335,5.154,11.491,11.489,11.491   H81.25V88.509z"/>
	<path fill="#000000" d="M34.375,71.875H23.96V61.458h10.415V71.875z M26.04,69.792h6.25v-6.25h-6.25V69.792z"/>
	<path fill="#000000" d="M34.375,88.542H23.96V78.125h10.415V88.542z M26.04,86.458h6.25v-6.25h-6.25V86.458z"/>
	<rect x="37.5" y="16.667" fill="#000000" width="27.085" height="4.167"/>
	<rect x="37.5" y="33.333" fill="#000000" width="37.5" height="4.167"/>
	<rect x="37.5" y="50" fill="#000000" width="37.5" height="4.167"/>
	<rect x="37.5" y="66.667" fill="#000000" width="37.5" height="4.167"/>
	<rect x="37.5" y="83.333" fill="#000000" width="37.5" height="4.167"/>
	<polygon fill="#000000" points="34.375,21.875 23.96,21.875 23.96,11.458 34.375,11.458 34.375,14.73 32.29,14.73 32.29,13.542    26.04,13.542 26.04,19.792 32.29,19.792 32.29,18.404 34.375,18.404  "/>
	<path fill="#000000" d="M38.224,11.723c-0.265-0.269-0.775-0.262-1.031-0.002l-5.735,5.67l-2.954-2.944   c-0.271-0.267-0.781-0.271-1.042-0.004c-0.283,0.285-0.289,0.749-0.008,1.036c0,0,3.335,3.357,3.402,3.426   c0.134,0.14,0.344,0.22,0.58,0.22c0.228,0,0.435-0.075,0.572-0.21l6.215-6.152C38.505,12.478,38.507,12.012,38.224,11.723z"/>
	<polygon fill="#000000" points="34.375,38.542 23.96,38.542 23.96,28.125 34.375,28.125 34.375,31.282 32.29,31.282 32.29,30.208    26.04,30.208 26.04,36.458 32.29,36.458 32.29,34.953 34.375,34.953  "/>
	<path fill="#000000" d="M38.224,28.276c-0.265-0.269-0.775-0.263-1.031-0.002l-5.735,5.67L28.503,31   c-0.273-0.269-0.773-0.273-1.042-0.008c-0.285,0.287-0.289,0.753-0.008,1.04c0.344,0.346,3.359,3.381,3.402,3.422   c0.136,0.142,0.348,0.224,0.58,0.224c0.224,0,0.431-0.077,0.572-0.214l6.215-6.153C38.505,29.026,38.505,28.564,38.224,28.276z"/>
	<polygon fill="#000000" points="34.375,55.208 23.96,55.208 23.96,44.792 34.375,44.792 34.375,48.246 32.29,48.246 32.29,46.875    26.04,46.875 26.04,53.125 32.29,53.125 32.29,51.916 34.375,51.916  "/>
	<path fill="#000000" d="M38.226,45.241c-0.267-0.271-0.771-0.269-1.034-0.008l-5.735,5.674l-2.954-2.944   c-0.273-0.269-0.773-0.273-1.042-0.008c-0.285,0.287-0.289,0.753-0.008,1.04c0.344,0.346,3.359,3.381,3.402,3.422   c0.136,0.142,0.348,0.224,0.58,0.224c0.224,0,0.431-0.077,0.572-0.214l6.215-6.152C38.505,45.99,38.505,45.528,38.226,45.241z"/>
</g>
</svg>